<svg width="240" height="240" viewBox="0 0 240 240" fill="none" xmlns="http://www.w3.org/2000/svg">
  <path d="M120 30C82.9807 30 53 61.9137 53 100C53 124.732 62.0331 147.178 77.4811 160.228C92.9291 173.277 113.071 173.277 128.519 160.228C143.967 147.178 153 124.732 153 100C153 61.9137 157.019 30 120 30Z" fill="#E8F0FE" opacity="0.8"/>
  <path d="M70 170H170V225C170 232.18 164.18 238 157 238H83C75.8203 238 70 232.18 70 225V170Z" fill="#E8F0FE"/>
  <rect x="85" y="170" width="70" height="68" rx="6" fill="#F8F9FA"/>
  <path d="M93 190C93 189.448 93.4477 189 94 189H146C146.552 189 147 189.448 147 190V190C147 190.552 146.552 191 146 191H94C93.4477 191 93 190.552 93 190V190Z" fill="#DADCE0"/>
  <path d="M93 200C93 199.448 93.4477 199 94 199H146C146.552 199 147 199.448 147 200V200C147 200.552 146.552 201 146 201H94C93.4477 201 93 200.552 93 200V200Z" fill="#DADCE0"/>
  <path d="M93 210C93 209.448 93.4477 209 94 209H146C146.552 209 147 209.448 147 210V210C147 210.552 146.552 211 146 211H94C93.4477 211 93 210.552 93 210V210Z" fill="#DADCE0"/>
  <path d="M93 220C93 219.448 93.4477 219 94 219H120C120.552 219 121 219.448 121 220V220C121 220.552 120.552 221 120 221H94C93.4477 221 93 220.552 93 220V220Z" fill="#DADCE0"/>
  <circle cx="120" cy="105" r="36" fill="white"/>
  <rect x="110" y="95" width="20" height="20" rx="2" fill="#1A73E8" opacity="0.8"/>
  <path fill-rule="evenodd" clip-rule="evenodd" d="M117 105C117 103.343 118.343 102 120 102C121.657 102 123 103.343 123 105C123 106.657 121.657 108 120 108C118.343 108 117 106.657 117 105Z" fill="white"/>
  <path fill-rule="evenodd" clip-rule="evenodd" d="M120 105C120.552 105 121 105.448 121 106V111C121 111.552 120.552 112 120 112C119.448 112 119 111.552 119 111V106C119 105.448 119.448 105 120 105Z" fill="white"/>
  <path fill-rule="evenodd" clip-rule="evenodd" d="M119.293 104.293C119.683 103.902 120.317 103.902 120.707 104.293L125.707 109.293C126.098 109.683 126.098 110.317 125.707 110.707C125.317 111.098 124.683 111.098 124.293 110.707L120 106.414L115.707 110.707C115.317 111.098 114.683 111.098 114.293 110.707C113.902 110.317 113.902 109.683 114.293 109.293L119.293 104.293Z" fill="white"/>
</svg>
