<svg width="32" height="32" viewBox="0 0 32 32" fill="none" xmlns="http://www.w3.org/2000/svg">
  <rect width="32" height="32" rx="4" fill="#1a73e8"/>
  <path d="M16 6C12.6863 6 10 10.0572 10 13.371C10 16.6847 11.3593 19.9879 14.2905 21.8618C15.8775 23.0127 16.6225 23.0127 18.2095 21.8618C21.1407 19.9879 22.5 16.6847 22.5 13.371C22.5 10.0572 19.3137 6 16 6Z" fill="white"/>
  <path d="M16 11.5C17.1046 11.5 18 12.3954 18 13.5C18 14.6046 17.1046 15.5 16 15.5C14.8954 15.5 14 14.6046 14 13.5C14 12.3954 14.8954 11.5 16 11.5Z" fill="#1a73e8"/>
  <path fill-rule="evenodd" clip-rule="evenodd" d="M10 24C10 23.4477 10.4477 23 11 23H21C21.5523 23 22 23.4477 22 24V25C22 25.5523 21.5523 26 21 26H11C10.4477 26 10 25.5523 10 25V24Z" fill="white"/>
</svg>
