<svg width="96" height="96" viewBox="0 0 96 96" fill="none" xmlns="http://www.w3.org/2000/svg">
  <rect width="96" height="96" rx="12" fill="#1a73e8"/>
  <path d="M48 20C38.9543 20 32 29.7157 32 38.7614C32 47.807 34.7432 57.2638 41.8762 62.8854C46.0596 66.238 49.9404 66.238 54.1238 62.8854C61.2568 57.2638 64 47.807 64 38.7614C64 29.7157 57.0457 20 48 20Z" fill="white"/>
  <path d="M48 36C50.2091 36 52 37.7909 52 40C52 42.2091 50.2091 44 48 44C45.7909 44 44 42.2091 44 40C44 37.7909 45.7909 36 48 36Z" fill="#1a73e8"/>
  <path fill-rule="evenodd" clip-rule="evenodd" d="M33 72C33 70.3431 34.3431 69 36 69H60C61.6569 69 63 70.3431 63 72V75C63 75.5523 62.5523 76 62 76H34C33.4477 76 33 75.5523 33 75V72Z" fill="white"/>
</svg>
